# xmcd
#
# Track frame offsets:
#	150
#	39135
#	70386
#	90201
#	107430
#	137651
#	157974
#	181543
#	197826
#	238556
#	275866
#	296741
# Disc length: 4352 seconds
# Revision: 2
# Processed by: cddbd v1.5.2PL0 Copyright (c) Steve Scherf et al.
#
# Submitted via: libkcddb 0.10
#
DISCID=9c10fe0c
DTITLE=Joseph Haydn - Symphonies londoniennes N° 94, 95, 104  [Thomas Fey, Heidelberg Sinfoniker]
DYEAR=1900
DGENRE=Classique
TTITLE0=Symphonie N°94  en sol majeur ''La Surprise'' - I. Adagio - Vivace assai
TTITLE1=Symphonie N°94  en sol majeur ''La Surprise'' - II. Andante
TTITLE2=Symphonie N°94  en sol majeur ''La Surprise'' - III. Menuet - Allegro molto
TTITLE3=Symphonie N°94  en sol majeur ''La Surprise'' - IV. Finale - Allegro di molto
TTITLE4=Symphonie N°95  en do mineur - I. Allegro Moderato
TTITLE5=Symphonie N°95  en do mineur - II. Andante cantabile
TTITLE6=Symphonie N°95  en do mineur - III. Menuet
TTITLE7=Symphonie N°95  en do mineur - IV. Finale - Vivace
TTITLE8=Symphonie N°104  en sol majeur ''Londres'' - I. Adagio - Allegro
TTITLE9=Symphonie N°104  en sol majeur ''Londres'' - II. Andante
TTITLE10=Symphonie N°104  en sol majeur ''Londres'' - III. Menuet - Allegro
TTITLE11=Symphonie N°104  en sol majeur ''Londres'' - IV. Finale - Spirutuoso
EXTD=
EXTT0=
EXTT1=
EXTT2=
EXTT3=
EXTT4=
EXTT5=
EXTT6=
EXTT7=
EXTT8=
EXTT9=
EXTT10=
EXTT11=
PLAYORDER=
